<mxfile host="app.diagrams.net" modified="2024-06-30T08:25:02.255Z" agent="Mozilla/5.0 (Macintosh; Intel Mac OS X 10_15_7) AppleWebKit/537.36 (KHTML, like Gecko) Chrome/126.0.0.0 Safari/537.36" etag="e8z0y6kv1HXy8rKd30rd" version="24.6.4" type="github">
  <diagram name="第 1 页" id="R63TyGtk8KyL8w1hz66D">
    <mxGraphModel dx="954" dy="615" grid="1" gridSize="10" guides="1" tooltips="1" connect="1" arrows="1" fold="1" page="1" pageScale="1" pageWidth="827" pageHeight="1169" math="0" shadow="0">
      <root>
        <mxCell id="0" />
        <mxCell id="1" parent="0" />
        <UserObject label="&lt;div style=&quot;background-color:#1e1f22;color:#bcbec4&quot;&gt;&lt;pre style=&quot;font-family:&#39;Menlo-Regular&#39;,monospace;font-size:9.8pt;&quot;&gt;我们看看下面一段代码：&lt;br&gt;&lt;span style=&quot;font-family:&#39;JetBrains Mono&#39;,monospace;&quot;&gt;Person p1 = new Person();&lt;br&gt;&lt;/span&gt;&lt;span style=&quot;font-family:&#39;JetBrains Mono&#39;,monospace;&quot;&gt;p1.age = 10;&lt;br&gt;&lt;/span&gt;&lt;span style=&quot;font-family:&#39;JetBrains Mono&#39;,monospace;&quot;&gt;p1.name = &quot;&lt;/span&gt;小明&lt;span style=&quot;font-family:&#39;JetBrains Mono&#39;,monospace;&quot;&gt;&quot;;&lt;br&gt;&lt;/span&gt;&lt;span style=&quot;font-family:&#39;JetBrains Mono&#39;,monospace;&quot;&gt;Person p2 = p1; // &lt;/span&gt;把&lt;span style=&quot;font-family:&#39;JetBrains Mono&#39;,monospace;&quot;&gt;p1&lt;/span&gt;赋给了&lt;span style=&quot;font-family:&#39;JetBrains Mono&#39;,monospace;&quot;&gt;p2,&lt;/span&gt;让&lt;span style=&quot;font-family:&#39;JetBrains Mono&#39;,monospace;&quot;&gt;p2&lt;/span&gt;指向&lt;span style=&quot;font-family:&#39;JetBrains Mono&#39;,monospace;&quot;&gt;p1&lt;br&gt;&lt;/span&gt;&lt;span style=&quot;font-family:&#39;JetBrains Mono&#39;,monospace;&quot;&gt;System.out.pringln(p2.age);&lt;br&gt;&lt;/span&gt;&lt;span style=&quot;font-family:&#39;JetBrains Mono&#39;,monospace;&quot;&gt;&lt;br&gt;&lt;/span&gt;请问：&lt;span style=&quot;font-family:&#39;JetBrains Mono&#39;,monospace;&quot;&gt;p2.age&lt;/span&gt;究竟是多少？并画出内存图&lt;/pre&gt;&lt;/div&gt;" link="&lt;div style=&quot;background-color:#1e1f22;color:#bcbec4&quot;&gt;&lt;pre style=&quot;font-family:&#39;Menlo-Regular&#39;,monospace;font-size:9.8pt;&quot;&gt;我们看看下面一段代码：&lt;br&gt;&lt;span style=&quot;font-family:&#39;JetBrains Mono&#39;,monospace;&quot;&gt;Person p1 = new Person();&lt;br&gt;&lt;/span&gt;&lt;span style=&quot;font-family:&#39;JetBrains Mono&#39;,monospace;&quot;&gt;p1.age = 10;&lt;br&gt;&lt;/span&gt;&lt;span style=&quot;font-family:&#39;JetBrains Mono&#39;,monospace;&quot;&gt;p1.name = &quot;&lt;/span&gt;小明&lt;span style=&quot;font-family:&#39;JetBrains Mono&#39;,monospace;&quot;&gt;&quot;;&lt;br&gt;&lt;/span&gt;&lt;span style=&quot;font-family:&#39;JetBrains Mono&#39;,monospace;&quot;&gt;Person p2 = p1; // &lt;/span&gt;把&lt;span style=&quot;font-family:&#39;JetBrains Mono&#39;,monospace;&quot;&gt;p1&lt;/span&gt;赋给了&lt;span style=&quot;font-family:&#39;JetBrains Mono&#39;,monospace;&quot;&gt;p2,&lt;/span&gt;让&lt;span style=&quot;font-family:&#39;JetBrains Mono&#39;,monospace;&quot;&gt;p2&lt;/span&gt;指向&lt;span style=&quot;font-family:&#39;JetBrains Mono&#39;,monospace;&quot;&gt;p1&lt;br&gt;&lt;/span&gt;&lt;span style=&quot;font-family:&#39;JetBrains Mono&#39;,monospace;&quot;&gt;System.out.pringln(p2.age);&lt;br&gt;&lt;/span&gt;&lt;span style=&quot;font-family:&#39;JetBrains Mono&#39;,monospace;&quot;&gt;&lt;br&gt;&lt;/span&gt;请问：&lt;span style=&quot;font-family:&#39;JetBrains Mono&#39;,monospace;&quot;&gt;p2.age&lt;/span&gt;究竟是多少？并画出内存图&lt;/pre&gt;&lt;/div&gt;" id="XxMkDsJMGtxLcaraHKOx-1">
          <mxCell style="text;whiteSpace=wrap;html=1;" parent="1" vertex="1">
            <mxGeometry x="30" y="160" width="350" height="180" as="geometry" />
          </mxCell>
        </UserObject>
        <mxCell id="XxMkDsJMGtxLcaraHKOx-2" value="&lt;b&gt;Person p1 = new Person();&lt;/b&gt;" style="rounded=0;whiteSpace=wrap;html=1;fillColor=#fff2cc;strokeColor=#d6b656;verticalAlign=top;align=left;" parent="1" vertex="1">
          <mxGeometry x="370" y="90" width="610" height="450" as="geometry" />
        </mxCell>
        <mxCell id="XxMkDsJMGtxLcaraHKOx-3" value="栈&lt;br&gt;&lt;br&gt;&lt;br&gt;&lt;br&gt;&lt;br&gt;&lt;br&gt;&lt;br&gt;&lt;br&gt;&lt;br&gt;p1 -&amp;gt;" style="rounded=0;whiteSpace=wrap;html=1;fillColor=#dae8fc;strokeColor=#6c8ebf;verticalAlign=top;align=left;" parent="1" vertex="1">
          <mxGeometry x="390" y="190" width="140" height="320" as="geometry" />
        </mxCell>
        <mxCell id="XxMkDsJMGtxLcaraHKOx-6" value="栈" style="text;html=1;align=center;verticalAlign=middle;resizable=0;points=[];autosize=1;strokeColor=none;fillColor=none;" parent="1" vertex="1">
          <mxGeometry x="250" y="80" width="40" height="30" as="geometry" />
        </mxCell>
        <mxCell id="XxMkDsJMGtxLcaraHKOx-7" value="" style="rounded=0;whiteSpace=wrap;html=1;fillColor=#dae8fc;strokeColor=#6c8ebf;" parent="1" vertex="1">
          <mxGeometry x="570" y="100" width="380" height="200" as="geometry" />
        </mxCell>
        <mxCell id="XxMkDsJMGtxLcaraHKOx-8" value="" style="rounded=0;whiteSpace=wrap;html=1;fillColor=#f8cecc;strokeColor=#b85450;" parent="1" vertex="1">
          <mxGeometry x="570" y="340" width="380" height="170" as="geometry" />
        </mxCell>
        <mxCell id="XxMkDsJMGtxLcaraHKOx-10" value="堆" style="text;html=1;align=center;verticalAlign=middle;resizable=0;points=[];autosize=1;strokeColor=none;fillColor=none;" parent="1" vertex="1">
          <mxGeometry x="580" y="110" width="40" height="30" as="geometry" />
        </mxCell>
        <mxCell id="XxMkDsJMGtxLcaraHKOx-11" value="&lt;span style=&quot;text-wrap: nowrap;&quot;&gt;加载Person类信息&lt;/span&gt;&lt;div style=&quot;text-wrap: nowrap;&quot;&gt;&lt;br&gt;&lt;div&gt;1.属性信息&lt;/div&gt;&lt;div&gt;2.方法信息&lt;/div&gt;&lt;/div&gt;" style="rounded=0;whiteSpace=wrap;html=1;fillColor=#e1d5e7;strokeColor=#9673a6;align=left;verticalAlign=top;" parent="1" vertex="1">
          <mxGeometry x="780" y="370" width="137" height="110" as="geometry" />
        </mxCell>
        <mxCell id="XxMkDsJMGtxLcaraHKOx-12" value="方法区" style="text;html=1;align=center;verticalAlign=middle;resizable=0;points=[];autosize=1;strokeColor=none;fillColor=none;" parent="1" vertex="1">
          <mxGeometry x="570" y="340" width="60" height="30" as="geometry" />
        </mxCell>
        <mxCell id="XxMkDsJMGtxLcaraHKOx-16" value="" style="rounded=0;whiteSpace=wrap;html=1;fillColor=#e1d5e7;strokeColor=#9673a6;align=left;" parent="1" vertex="1">
          <mxGeometry x="610" y="140" width="200" height="140" as="geometry" />
        </mxCell>
        <mxCell id="XxMkDsJMGtxLcaraHKOx-17" value="0x0011" style="text;html=1;align=center;verticalAlign=middle;resizable=0;points=[];autosize=1;strokeColor=none;fillColor=none;" parent="1" vertex="1">
          <mxGeometry x="620" y="150" width="60" height="30" as="geometry" />
        </mxCell>
        <mxCell id="XxMkDsJMGtxLcaraHKOx-18" value="0" style="rounded=0;whiteSpace=wrap;html=1;fillColor=#d5e8d4;strokeColor=#82b366;" parent="1" vertex="1">
          <mxGeometry x="620" y="180" width="65" height="30" as="geometry" />
        </mxCell>
        <mxCell id="XxMkDsJMGtxLcaraHKOx-19" value="null" style="rounded=0;whiteSpace=wrap;html=1;fillColor=#d5e8d4;strokeColor=#82b366;" parent="1" vertex="1">
          <mxGeometry x="620" y="230" width="65" height="30" as="geometry" />
        </mxCell>
        <mxCell id="LdmIbSoSS_R4Q0QED9KC-6" value="&lt;span style=&quot;text-wrap: nowrap;&quot;&gt;0x0011&lt;/span&gt;" style="rounded=0;whiteSpace=wrap;html=1;fillColor=#d5e8d4;strokeColor=#82b366;" parent="1" vertex="1">
          <mxGeometry x="427.5" y="320" width="65" height="30" as="geometry" />
        </mxCell>
        <mxCell id="LdmIbSoSS_R4Q0QED9KC-8" style="rounded=0;orthogonalLoop=1;jettySize=auto;html=1;entryX=0;entryY=0.193;entryDx=0;entryDy=0;entryPerimeter=0;fontSize=12;startSize=8;endSize=8;edgeStyle=orthogonalEdgeStyle;curved=1;strokeWidth=2;" parent="1" source="LdmIbSoSS_R4Q0QED9KC-6" target="XxMkDsJMGtxLcaraHKOx-16" edge="1">
          <mxGeometry relative="1" as="geometry" />
        </mxCell>
        <mxCell id="LdmIbSoSS_R4Q0QED9KC-9" value="&lt;div style=&quot;text-wrap: nowrap;&quot;&gt;常量池&lt;br&gt;&lt;div&gt;&lt;br&gt;&lt;/div&gt;&lt;div&gt;&lt;br&gt;&lt;/div&gt;&lt;div&gt;&lt;br&gt;&lt;/div&gt;&lt;div&gt;&lt;br&gt;&lt;/div&gt;&lt;div&gt;&lt;br&gt;&lt;/div&gt;&lt;div&gt;&lt;br&gt;&lt;/div&gt;&lt;/div&gt;" style="rounded=0;whiteSpace=wrap;html=1;fillColor=#e1d5e7;strokeColor=#9673a6;align=left;verticalAlign=top;" parent="1" vertex="1">
          <mxGeometry x="610" y="370" width="150" height="120" as="geometry" />
        </mxCell>
        <mxCell id="LdmIbSoSS_R4Q0QED9KC-24" value="&lt;b&gt;p1.age = 10;&lt;/b&gt;" style="rounded=0;whiteSpace=wrap;html=1;fillColor=#fff2cc;strokeColor=#d6b656;verticalAlign=top;align=left;" parent="1" vertex="1">
          <mxGeometry x="370" y="560" width="610" height="450" as="geometry" />
        </mxCell>
        <mxCell id="LdmIbSoSS_R4Q0QED9KC-25" value="栈&lt;br&gt;&lt;br&gt;&lt;br&gt;&lt;br&gt;&lt;br&gt;&lt;br&gt;&lt;br&gt;&lt;br&gt;&lt;br&gt;p1 -&amp;gt;" style="rounded=0;whiteSpace=wrap;html=1;fillColor=#dae8fc;strokeColor=#6c8ebf;verticalAlign=top;align=left;" parent="1" vertex="1">
          <mxGeometry x="390" y="660" width="140" height="320" as="geometry" />
        </mxCell>
        <mxCell id="LdmIbSoSS_R4Q0QED9KC-26" value="" style="rounded=0;whiteSpace=wrap;html=1;fillColor=#dae8fc;strokeColor=#6c8ebf;" parent="1" vertex="1">
          <mxGeometry x="570" y="570" width="380" height="200" as="geometry" />
        </mxCell>
        <mxCell id="LdmIbSoSS_R4Q0QED9KC-27" value="" style="rounded=0;whiteSpace=wrap;html=1;fillColor=#f8cecc;strokeColor=#b85450;" parent="1" vertex="1">
          <mxGeometry x="570" y="810" width="380" height="170" as="geometry" />
        </mxCell>
        <mxCell id="LdmIbSoSS_R4Q0QED9KC-28" value="堆" style="text;html=1;align=center;verticalAlign=middle;resizable=0;points=[];autosize=1;strokeColor=none;fillColor=none;" parent="1" vertex="1">
          <mxGeometry x="580" y="580" width="40" height="30" as="geometry" />
        </mxCell>
        <mxCell id="LdmIbSoSS_R4Q0QED9KC-29" value="&lt;span style=&quot;text-wrap: nowrap;&quot;&gt;加载Person类信息&lt;/span&gt;&lt;div style=&quot;text-wrap: nowrap;&quot;&gt;&lt;br&gt;&lt;div&gt;1.属性信息&lt;/div&gt;&lt;div&gt;2.方法信息&lt;/div&gt;&lt;/div&gt;" style="rounded=0;whiteSpace=wrap;html=1;fillColor=#e1d5e7;strokeColor=#9673a6;align=left;verticalAlign=top;" parent="1" vertex="1">
          <mxGeometry x="780" y="840" width="137" height="110" as="geometry" />
        </mxCell>
        <mxCell id="LdmIbSoSS_R4Q0QED9KC-30" value="方法区" style="text;html=1;align=center;verticalAlign=middle;resizable=0;points=[];autosize=1;strokeColor=none;fillColor=none;" parent="1" vertex="1">
          <mxGeometry x="570" y="810" width="60" height="30" as="geometry" />
        </mxCell>
        <mxCell id="LdmIbSoSS_R4Q0QED9KC-31" value="" style="rounded=0;whiteSpace=wrap;html=1;fillColor=#e1d5e7;strokeColor=#9673a6;align=left;" parent="1" vertex="1">
          <mxGeometry x="610" y="610" width="200" height="140" as="geometry" />
        </mxCell>
        <mxCell id="LdmIbSoSS_R4Q0QED9KC-32" value="0x0011" style="text;html=1;align=center;verticalAlign=middle;resizable=0;points=[];autosize=1;strokeColor=none;fillColor=none;" parent="1" vertex="1">
          <mxGeometry x="620" y="620" width="60" height="30" as="geometry" />
        </mxCell>
        <mxCell id="LdmIbSoSS_R4Q0QED9KC-33" value="10：age" style="rounded=0;whiteSpace=wrap;html=1;fillColor=#d5e8d4;strokeColor=#82b366;" parent="1" vertex="1">
          <mxGeometry x="620" y="650" width="65" height="30" as="geometry" />
        </mxCell>
        <mxCell id="LdmIbSoSS_R4Q0QED9KC-34" value="0x0022：name" style="rounded=0;whiteSpace=wrap;html=1;fillColor=#d5e8d4;strokeColor=#82b366;" parent="1" vertex="1">
          <mxGeometry x="620" y="700" width="90" height="30" as="geometry" />
        </mxCell>
        <mxCell id="LdmIbSoSS_R4Q0QED9KC-35" value="&lt;span style=&quot;text-wrap: nowrap;&quot;&gt;0x0011&lt;/span&gt;" style="rounded=0;whiteSpace=wrap;html=1;fillColor=#d5e8d4;strokeColor=#82b366;" parent="1" vertex="1">
          <mxGeometry x="427.5" y="790" width="65" height="30" as="geometry" />
        </mxCell>
        <mxCell id="LdmIbSoSS_R4Q0QED9KC-36" style="rounded=0;orthogonalLoop=1;jettySize=auto;html=1;entryX=0;entryY=0.193;entryDx=0;entryDy=0;entryPerimeter=0;fontSize=12;startSize=8;endSize=8;edgeStyle=orthogonalEdgeStyle;curved=1;strokeWidth=2;" parent="1" source="LdmIbSoSS_R4Q0QED9KC-35" target="LdmIbSoSS_R4Q0QED9KC-31" edge="1">
          <mxGeometry relative="1" as="geometry" />
        </mxCell>
        <mxCell id="LdmIbSoSS_R4Q0QED9KC-37" value="&lt;div style=&quot;text-wrap: nowrap;&quot;&gt;常量池&lt;br&gt;&lt;div&gt;&lt;br&gt;&lt;/div&gt;&lt;div&gt;&lt;br&gt;&lt;/div&gt;&lt;div&gt;&lt;br&gt;&lt;/div&gt;&lt;div&gt;&lt;br&gt;&lt;/div&gt;&lt;div&gt;&lt;br&gt;&lt;/div&gt;&lt;div&gt;&lt;br&gt;&lt;/div&gt;&lt;/div&gt;" style="rounded=0;whiteSpace=wrap;html=1;fillColor=#e1d5e7;strokeColor=#9673a6;align=left;verticalAlign=top;" parent="1" vertex="1">
          <mxGeometry x="610" y="840" width="150" height="120" as="geometry" />
        </mxCell>
        <mxCell id="LdmIbSoSS_R4Q0QED9KC-38" value="小明" style="rounded=0;whiteSpace=wrap;html=1;" parent="1" vertex="1">
          <mxGeometry x="620" y="870" width="65" height="30" as="geometry" />
        </mxCell>
        <mxCell id="LdmIbSoSS_R4Q0QED9KC-39" value="0x0022" style="rounded=0;whiteSpace=wrap;html=1;fillColor=#d5e8d4;strokeColor=#82b366;" parent="1" vertex="1">
          <mxGeometry x="685" y="870" width="65" height="30" as="geometry" />
        </mxCell>
        <mxCell id="LdmIbSoSS_R4Q0QED9KC-41" style="edgeStyle=orthogonalEdgeStyle;curved=1;rounded=0;orthogonalLoop=1;jettySize=auto;html=1;fontSize=12;startSize=8;endSize=8;exitX=1;exitY=0.75;exitDx=0;exitDy=0;strokeWidth=2;" parent="1" source="LdmIbSoSS_R4Q0QED9KC-34" target="LdmIbSoSS_R4Q0QED9KC-39" edge="1">
          <mxGeometry relative="1" as="geometry" />
        </mxCell>
        <mxCell id="LdmIbSoSS_R4Q0QED9KC-42" value="&lt;b&gt;p1.age = 10;&lt;/b&gt;" style="rounded=0;whiteSpace=wrap;html=1;fillColor=#fff2cc;strokeColor=#d6b656;verticalAlign=top;align=left;" parent="1" vertex="1">
          <mxGeometry x="370" y="1030" width="610" height="450" as="geometry" />
        </mxCell>
        <mxCell id="LdmIbSoSS_R4Q0QED9KC-43" value="栈&lt;br&gt;&lt;br&gt;&lt;br&gt;&lt;br&gt;&lt;br&gt;&lt;br&gt;&lt;br&gt;&lt;br&gt;&lt;br&gt;p1 -&amp;gt;" style="rounded=0;whiteSpace=wrap;html=1;fillColor=#dae8fc;strokeColor=#6c8ebf;verticalAlign=top;align=left;" parent="1" vertex="1">
          <mxGeometry x="390" y="1130" width="140" height="320" as="geometry" />
        </mxCell>
        <mxCell id="LdmIbSoSS_R4Q0QED9KC-44" value="" style="rounded=0;whiteSpace=wrap;html=1;fillColor=#dae8fc;strokeColor=#6c8ebf;" parent="1" vertex="1">
          <mxGeometry x="570" y="1040" width="380" height="200" as="geometry" />
        </mxCell>
        <mxCell id="LdmIbSoSS_R4Q0QED9KC-45" value="" style="rounded=0;whiteSpace=wrap;html=1;fillColor=#f8cecc;strokeColor=#b85450;" parent="1" vertex="1">
          <mxGeometry x="570" y="1280" width="380" height="170" as="geometry" />
        </mxCell>
        <mxCell id="LdmIbSoSS_R4Q0QED9KC-46" value="堆" style="text;html=1;align=center;verticalAlign=middle;resizable=0;points=[];autosize=1;strokeColor=none;fillColor=none;" parent="1" vertex="1">
          <mxGeometry x="580" y="1050" width="40" height="30" as="geometry" />
        </mxCell>
        <mxCell id="LdmIbSoSS_R4Q0QED9KC-47" value="&lt;span style=&quot;text-wrap: nowrap;&quot;&gt;加载Person类信息&lt;/span&gt;&lt;div style=&quot;text-wrap: nowrap;&quot;&gt;&lt;br&gt;&lt;div&gt;1.属性信息&lt;/div&gt;&lt;div&gt;2.方法信息&lt;/div&gt;&lt;/div&gt;" style="rounded=0;whiteSpace=wrap;html=1;fillColor=#e1d5e7;strokeColor=#9673a6;align=left;verticalAlign=top;" parent="1" vertex="1">
          <mxGeometry x="780" y="1310" width="137" height="110" as="geometry" />
        </mxCell>
        <mxCell id="LdmIbSoSS_R4Q0QED9KC-48" value="方法区" style="text;html=1;align=center;verticalAlign=middle;resizable=0;points=[];autosize=1;strokeColor=none;fillColor=none;" parent="1" vertex="1">
          <mxGeometry x="570" y="1280" width="60" height="30" as="geometry" />
        </mxCell>
        <mxCell id="LdmIbSoSS_R4Q0QED9KC-49" value="" style="rounded=0;whiteSpace=wrap;html=1;fillColor=#e1d5e7;strokeColor=#9673a6;align=left;" parent="1" vertex="1">
          <mxGeometry x="610" y="1080" width="200" height="140" as="geometry" />
        </mxCell>
        <mxCell id="LdmIbSoSS_R4Q0QED9KC-50" value="0x0011" style="text;html=1;align=center;verticalAlign=middle;resizable=0;points=[];autosize=1;strokeColor=none;fillColor=none;" parent="1" vertex="1">
          <mxGeometry x="620" y="1090" width="60" height="30" as="geometry" />
        </mxCell>
        <mxCell id="LdmIbSoSS_R4Q0QED9KC-51" value="10：age" style="rounded=0;whiteSpace=wrap;html=1;fillColor=#d5e8d4;strokeColor=#82b366;" parent="1" vertex="1">
          <mxGeometry x="620" y="1120" width="65" height="30" as="geometry" />
        </mxCell>
        <mxCell id="LdmIbSoSS_R4Q0QED9KC-52" value="0x0022：name" style="rounded=0;whiteSpace=wrap;html=1;fillColor=#d5e8d4;strokeColor=#82b366;" parent="1" vertex="1">
          <mxGeometry x="620" y="1170" width="100" height="30" as="geometry" />
        </mxCell>
        <mxCell id="LdmIbSoSS_R4Q0QED9KC-53" value="&lt;span style=&quot;text-wrap: nowrap;&quot;&gt;0x0011&lt;/span&gt;" style="rounded=0;whiteSpace=wrap;html=1;fillColor=#d5e8d4;strokeColor=#82b366;" parent="1" vertex="1">
          <mxGeometry x="427.5" y="1260" width="65" height="30" as="geometry" />
        </mxCell>
        <mxCell id="LdmIbSoSS_R4Q0QED9KC-54" style="rounded=0;orthogonalLoop=1;jettySize=auto;html=1;entryX=0;entryY=0.193;entryDx=0;entryDy=0;entryPerimeter=0;fontSize=12;startSize=8;endSize=8;edgeStyle=orthogonalEdgeStyle;curved=1;strokeWidth=2;" parent="1" source="LdmIbSoSS_R4Q0QED9KC-53" target="LdmIbSoSS_R4Q0QED9KC-49" edge="1">
          <mxGeometry relative="1" as="geometry" />
        </mxCell>
        <mxCell id="LdmIbSoSS_R4Q0QED9KC-55" value="&lt;div style=&quot;text-wrap: nowrap;&quot;&gt;常量池&lt;br&gt;&lt;div&gt;&lt;br&gt;&lt;/div&gt;&lt;div&gt;&lt;br&gt;&lt;/div&gt;&lt;div&gt;&lt;br&gt;&lt;/div&gt;&lt;div&gt;&lt;br&gt;&lt;/div&gt;&lt;div&gt;&lt;br&gt;&lt;/div&gt;&lt;div&gt;&lt;br&gt;&lt;/div&gt;&lt;/div&gt;" style="rounded=0;whiteSpace=wrap;html=1;fillColor=#e1d5e7;strokeColor=#9673a6;align=left;verticalAlign=top;" parent="1" vertex="1">
          <mxGeometry x="610" y="1310" width="150" height="120" as="geometry" />
        </mxCell>
        <mxCell id="LdmIbSoSS_R4Q0QED9KC-56" value="小明" style="rounded=0;whiteSpace=wrap;html=1;" parent="1" vertex="1">
          <mxGeometry x="620" y="1340" width="65" height="30" as="geometry" />
        </mxCell>
        <mxCell id="LdmIbSoSS_R4Q0QED9KC-57" value="0x0022" style="rounded=0;whiteSpace=wrap;html=1;fillColor=#d5e8d4;strokeColor=#82b366;" parent="1" vertex="1">
          <mxGeometry x="685" y="1340" width="65" height="30" as="geometry" />
        </mxCell>
        <mxCell id="LdmIbSoSS_R4Q0QED9KC-58" style="edgeStyle=orthogonalEdgeStyle;curved=1;rounded=0;orthogonalLoop=1;jettySize=auto;html=1;fontSize=12;startSize=8;endSize=8;exitX=1;exitY=0.75;exitDx=0;exitDy=0;strokeWidth=2;" parent="1" source="LdmIbSoSS_R4Q0QED9KC-52" target="LdmIbSoSS_R4Q0QED9KC-57" edge="1">
          <mxGeometry relative="1" as="geometry" />
        </mxCell>
        <mxCell id="LdmIbSoSS_R4Q0QED9KC-59" value="&lt;b&gt;Person p2 = p1;&lt;/b&gt;" style="rounded=0;whiteSpace=wrap;html=1;fillColor=#fff2cc;strokeColor=#d6b656;verticalAlign=top;align=left;" parent="1" vertex="1">
          <mxGeometry x="370" y="1500" width="610" height="450" as="geometry" />
        </mxCell>
        <mxCell id="LdmIbSoSS_R4Q0QED9KC-60" value="栈&lt;br&gt;&lt;br&gt;&lt;br&gt;&lt;br&gt;&lt;br&gt;&lt;br&gt;&lt;div&gt;p2 -&amp;gt;&lt;br&gt;&lt;br&gt;&lt;br&gt;&lt;br&gt;p1 -&amp;gt;&lt;/div&gt;" style="rounded=0;whiteSpace=wrap;html=1;fillColor=#dae8fc;strokeColor=#6c8ebf;verticalAlign=top;align=left;" parent="1" vertex="1">
          <mxGeometry x="390" y="1600" width="140" height="320" as="geometry" />
        </mxCell>
        <mxCell id="LdmIbSoSS_R4Q0QED9KC-61" value="" style="rounded=0;whiteSpace=wrap;html=1;fillColor=#dae8fc;strokeColor=#6c8ebf;" parent="1" vertex="1">
          <mxGeometry x="570" y="1510" width="380" height="200" as="geometry" />
        </mxCell>
        <mxCell id="LdmIbSoSS_R4Q0QED9KC-62" value="" style="rounded=0;whiteSpace=wrap;html=1;fillColor=#f8cecc;strokeColor=#b85450;" parent="1" vertex="1">
          <mxGeometry x="570" y="1750" width="380" height="170" as="geometry" />
        </mxCell>
        <mxCell id="LdmIbSoSS_R4Q0QED9KC-63" value="堆" style="text;html=1;align=center;verticalAlign=middle;resizable=0;points=[];autosize=1;strokeColor=none;fillColor=none;" parent="1" vertex="1">
          <mxGeometry x="580" y="1520" width="40" height="30" as="geometry" />
        </mxCell>
        <mxCell id="LdmIbSoSS_R4Q0QED9KC-64" value="&lt;span style=&quot;text-wrap: nowrap;&quot;&gt;加载Person类信息&lt;/span&gt;&lt;div style=&quot;text-wrap: nowrap;&quot;&gt;&lt;br&gt;&lt;div&gt;1.属性信息&lt;/div&gt;&lt;div&gt;2.方法信息&lt;/div&gt;&lt;/div&gt;" style="rounded=0;whiteSpace=wrap;html=1;fillColor=#e1d5e7;strokeColor=#9673a6;align=left;verticalAlign=top;" parent="1" vertex="1">
          <mxGeometry x="780" y="1780" width="137" height="110" as="geometry" />
        </mxCell>
        <mxCell id="LdmIbSoSS_R4Q0QED9KC-65" value="方法区" style="text;html=1;align=center;verticalAlign=middle;resizable=0;points=[];autosize=1;strokeColor=none;fillColor=none;" parent="1" vertex="1">
          <mxGeometry x="570" y="1750" width="60" height="30" as="geometry" />
        </mxCell>
        <mxCell id="LdmIbSoSS_R4Q0QED9KC-66" value="" style="rounded=0;whiteSpace=wrap;html=1;fillColor=#e1d5e7;strokeColor=#9673a6;align=left;" parent="1" vertex="1">
          <mxGeometry x="610" y="1550" width="200" height="140" as="geometry" />
        </mxCell>
        <mxCell id="LdmIbSoSS_R4Q0QED9KC-67" value="0x0011" style="text;html=1;align=center;verticalAlign=middle;resizable=0;points=[];autosize=1;strokeColor=none;fillColor=none;" parent="1" vertex="1">
          <mxGeometry x="620" y="1560" width="60" height="30" as="geometry" />
        </mxCell>
        <mxCell id="LdmIbSoSS_R4Q0QED9KC-68" value="10：age" style="rounded=0;whiteSpace=wrap;html=1;fillColor=#d5e8d4;strokeColor=#82b366;" parent="1" vertex="1">
          <mxGeometry x="620" y="1590" width="65" height="30" as="geometry" />
        </mxCell>
        <mxCell id="LdmIbSoSS_R4Q0QED9KC-69" value="0x0022：name" style="rounded=0;whiteSpace=wrap;html=1;fillColor=#d5e8d4;strokeColor=#82b366;" parent="1" vertex="1">
          <mxGeometry x="620" y="1640" width="90" height="30" as="geometry" />
        </mxCell>
        <mxCell id="LdmIbSoSS_R4Q0QED9KC-70" value="&lt;span style=&quot;text-wrap: nowrap;&quot;&gt;0x0011&lt;/span&gt;" style="rounded=0;whiteSpace=wrap;html=1;fillColor=#d5e8d4;strokeColor=#82b366;" parent="1" vertex="1">
          <mxGeometry x="427.5" y="1745" width="65" height="30" as="geometry" />
        </mxCell>
        <mxCell id="LdmIbSoSS_R4Q0QED9KC-71" style="rounded=0;orthogonalLoop=1;jettySize=auto;html=1;entryX=0;entryY=0.193;entryDx=0;entryDy=0;entryPerimeter=0;fontSize=12;startSize=8;endSize=8;edgeStyle=orthogonalEdgeStyle;curved=1;strokeWidth=2;" parent="1" source="LdmIbSoSS_R4Q0QED9KC-70" target="LdmIbSoSS_R4Q0QED9KC-66" edge="1">
          <mxGeometry relative="1" as="geometry" />
        </mxCell>
        <mxCell id="LdmIbSoSS_R4Q0QED9KC-72" value="&lt;div style=&quot;text-wrap: nowrap;&quot;&gt;常量池&lt;br&gt;&lt;div&gt;&lt;br&gt;&lt;/div&gt;&lt;div&gt;&lt;br&gt;&lt;/div&gt;&lt;div&gt;&lt;br&gt;&lt;/div&gt;&lt;div&gt;&lt;br&gt;&lt;/div&gt;&lt;div&gt;&lt;br&gt;&lt;/div&gt;&lt;div&gt;&lt;br&gt;&lt;/div&gt;&lt;/div&gt;" style="rounded=0;whiteSpace=wrap;html=1;fillColor=#e1d5e7;strokeColor=#9673a6;align=left;verticalAlign=top;" parent="1" vertex="1">
          <mxGeometry x="610" y="1780" width="150" height="120" as="geometry" />
        </mxCell>
        <mxCell id="LdmIbSoSS_R4Q0QED9KC-73" value="小明" style="rounded=0;whiteSpace=wrap;html=1;" parent="1" vertex="1">
          <mxGeometry x="620" y="1810" width="65" height="30" as="geometry" />
        </mxCell>
        <mxCell id="LdmIbSoSS_R4Q0QED9KC-74" value="0x0022" style="rounded=0;whiteSpace=wrap;html=1;fillColor=#d5e8d4;strokeColor=#82b366;" parent="1" vertex="1">
          <mxGeometry x="685" y="1810" width="65" height="30" as="geometry" />
        </mxCell>
        <mxCell id="LdmIbSoSS_R4Q0QED9KC-75" style="edgeStyle=orthogonalEdgeStyle;curved=1;rounded=0;orthogonalLoop=1;jettySize=auto;html=1;fontSize=12;startSize=8;endSize=8;exitX=1;exitY=0.75;exitDx=0;exitDy=0;strokeWidth=2;" parent="1" source="LdmIbSoSS_R4Q0QED9KC-69" target="LdmIbSoSS_R4Q0QED9KC-74" edge="1">
          <mxGeometry relative="1" as="geometry" />
        </mxCell>
        <mxCell id="LdmIbSoSS_R4Q0QED9KC-76" value="&lt;span style=&quot;text-wrap: nowrap;&quot;&gt;0x0011&lt;/span&gt;" style="rounded=0;whiteSpace=wrap;html=1;fillColor=#d5e8d4;strokeColor=#82b366;" parent="1" vertex="1">
          <mxGeometry x="427.5" y="1687" width="65" height="30" as="geometry" />
        </mxCell>
        <mxCell id="LdmIbSoSS_R4Q0QED9KC-78" style="edgeStyle=orthogonalEdgeStyle;curved=1;rounded=0;orthogonalLoop=1;jettySize=auto;html=1;entryX=0.002;entryY=0.091;entryDx=0;entryDy=0;entryPerimeter=0;fontSize=12;startSize=8;endSize=8;strokeWidth=2;" parent="1" source="LdmIbSoSS_R4Q0QED9KC-76" target="LdmIbSoSS_R4Q0QED9KC-66" edge="1">
          <mxGeometry relative="1" as="geometry">
            <Array as="points">
              <mxPoint x="540" y="1702" />
              <mxPoint x="540" y="1563" />
            </Array>
          </mxGeometry>
        </mxCell>
      </root>
    </mxGraphModel>
  </diagram>
</mxfile>
